<mxfile host="app.diagrams.net" modified="2023-04-13T17:00:55.790Z" agent="Mozilla/5.0 (Windows NT 10.0; Win64; x64) AppleWebKit/537.36 (KHTML, like Gecko) Chrome/111.0.0.0 Safari/537.36 OPR/97.0.0.0" etag="YoSen8WYGlcbdNwOVyC0" version="21.1.6" type="google">
  <diagram name="Page-1" id="FQ0zpB0-a6pp9aoAKLg0">
    <mxGraphModel grid="1" page="1" gridSize="10" guides="1" tooltips="1" connect="1" arrows="1" fold="1" pageScale="1" pageWidth="827" pageHeight="1169" math="0" shadow="0">
      <root>
        <mxCell id="0" />
        <mxCell id="1" parent="0" />
        <mxCell id="2VLnSF0OwdZgOoo4mHuo-1" value="&lt;font style=&quot;font-size: 34px;&quot; face=&quot;Consolas&quot;&gt;f&lt;/font&gt;" style="rounded=1;whiteSpace=wrap;html=1;" vertex="1" parent="1">
          <mxGeometry x="356" y="100" width="120" height="60" as="geometry" />
        </mxCell>
        <mxCell id="2VLnSF0OwdZgOoo4mHuo-2" value="&lt;font style=&quot;font-size: 23px;&quot;&gt;i&lt;/font&gt;" style="ellipse;whiteSpace=wrap;html=1;aspect=fixed;fontFamily=Consolas;" vertex="1" parent="1">
          <mxGeometry x="232" y="105" width="50" height="50" as="geometry" />
        </mxCell>
        <mxCell id="2VLnSF0OwdZgOoo4mHuo-3" value="" style="endArrow=classic;html=1;rounded=0;exitX=1;exitY=0.5;exitDx=0;exitDy=0;entryX=0;entryY=0.5;entryDx=0;entryDy=0;" edge="1" parent="1" source="2VLnSF0OwdZgOoo4mHuo-2" target="2VLnSF0OwdZgOoo4mHuo-1">
          <mxGeometry width="50" height="50" relative="1" as="geometry">
            <mxPoint x="392" y="420" as="sourcePoint" />
            <mxPoint x="442" y="370" as="targetPoint" />
          </mxGeometry>
        </mxCell>
        <mxCell id="2VLnSF0OwdZgOoo4mHuo-4" value="" style="endArrow=classic;html=1;rounded=0;exitX=1;exitY=0.5;exitDx=0;exitDy=0;entryX=0;entryY=0.5;entryDx=0;entryDy=0;" edge="1" parent="1" source="2VLnSF0OwdZgOoo4mHuo-1" target="2VLnSF0OwdZgOoo4mHuo-5">
          <mxGeometry width="50" height="50" relative="1" as="geometry">
            <mxPoint x="292" y="140" as="sourcePoint" />
            <mxPoint x="552" y="130" as="targetPoint" />
          </mxGeometry>
        </mxCell>
        <mxCell id="2VLnSF0OwdZgOoo4mHuo-5" value="&lt;font style=&quot;font-size: 23px;&quot;&gt;o&lt;/font&gt;" style="ellipse;whiteSpace=wrap;html=1;aspect=fixed;fontFamily=Consolas;" vertex="1" parent="1">
          <mxGeometry x="552" y="105" width="50" height="50" as="geometry" />
        </mxCell>
        <mxCell id="2VLnSF0OwdZgOoo4mHuo-7" value="" style="shape=flexArrow;endArrow=classic;html=1;rounded=0;exitX=0.5;exitY=1;exitDx=0;exitDy=0;entryX=0.5;entryY=0;entryDx=0;entryDy=0;" edge="1" parent="1" source="2VLnSF0OwdZgOoo4mHuo-1" target="2VLnSF0OwdZgOoo4mHuo-8">
          <mxGeometry width="50" height="50" relative="1" as="geometry">
            <mxPoint x="400" y="270" as="sourcePoint" />
            <mxPoint x="414" y="330" as="targetPoint" />
          </mxGeometry>
        </mxCell>
        <mxCell id="2VLnSF0OwdZgOoo4mHuo-8" value="" style="rounded=1;whiteSpace=wrap;html=1;" vertex="1" parent="1">
          <mxGeometry x="250" y="330" width="333" height="630" as="geometry" />
        </mxCell>
        <mxCell id="2VLnSF0OwdZgOoo4mHuo-9" value="&lt;font face=&quot;Consolas&quot; style=&quot;font-size: 33px;&quot;&gt;@threadify(f)&lt;/font&gt;" style="text;html=1;strokeColor=none;fillColor=none;align=center;verticalAlign=middle;whiteSpace=wrap;rounded=0;" vertex="1" parent="1">
          <mxGeometry x="280" y="360" width="270" height="30" as="geometry" />
        </mxCell>
        <mxCell id="_gmDKqszK5r5kLd_yYHz-1" value="&lt;span style=&quot;font-size: 15px;&quot;&gt;[i&lt;sub style=&quot;font-size: 15px;&quot;&gt;0&lt;/sub&gt;, i&lt;sub style=&quot;font-size: 15px;&quot;&gt;1&lt;/sub&gt;, i&lt;sub style=&quot;font-size: 15px;&quot;&gt;2&lt;/sub&gt;, i&lt;sub style=&quot;font-size: 15px;&quot;&gt;3&lt;/sub&gt;, ..., i&lt;sub style=&quot;font-size: 15px;&quot;&gt;n&lt;/sub&gt;]&lt;/span&gt;" style="ellipse;whiteSpace=wrap;html=1;fontFamily=Consolas;fontSize=15;" vertex="1" parent="1">
          <mxGeometry y="603.5" width="226" height="83" as="geometry" />
        </mxCell>
        <mxCell id="_gmDKqszK5r5kLd_yYHz-2" value="" style="endArrow=classic;html=1;rounded=0;entryX=0;entryY=0.5;entryDx=0;entryDy=0;exitX=1;exitY=0.5;exitDx=0;exitDy=0;strokeWidth=2;" edge="1" parent="1" source="_gmDKqszK5r5kLd_yYHz-1" target="2VLnSF0OwdZgOoo4mHuo-8">
          <mxGeometry width="50" height="50" relative="1" as="geometry">
            <mxPoint x="120" y="770" as="sourcePoint" />
            <mxPoint x="170" y="720" as="targetPoint" />
          </mxGeometry>
        </mxCell>
        <mxCell id="_gmDKqszK5r5kLd_yYHz-10" style="edgeStyle=orthogonalEdgeStyle;rounded=0;orthogonalLoop=1;jettySize=auto;html=1;exitX=1;exitY=0;exitDx=0;exitDy=0;entryX=1;entryY=0;entryDx=0;entryDy=0;" edge="1" parent="1">
          <mxGeometry relative="1" as="geometry">
            <mxPoint x="62.67766952967236" y="757.3223304703279" as="sourcePoint" />
            <mxPoint x="62.67766952967236" y="757.3223304703279" as="targetPoint" />
          </mxGeometry>
        </mxCell>
        <mxCell id="_gmDKqszK5r5kLd_yYHz-16" value="&lt;font style=&quot;font-size: 34px;&quot; face=&quot;Consolas&quot;&gt;f&lt;/font&gt;" style="rounded=1;whiteSpace=wrap;html=1;" vertex="1" parent="1">
          <mxGeometry x="355" y="430" width="120" height="60" as="geometry" />
        </mxCell>
        <mxCell id="_gmDKqszK5r5kLd_yYHz-17" value="&lt;font style=&quot;font-size: 34px;&quot; face=&quot;Consolas&quot;&gt;f&lt;/font&gt;" style="rounded=1;whiteSpace=wrap;html=1;" vertex="1" parent="1">
          <mxGeometry x="354" y="500" width="120" height="60" as="geometry" />
        </mxCell>
        <mxCell id="_gmDKqszK5r5kLd_yYHz-18" value="&lt;font style=&quot;font-size: 34px;&quot; face=&quot;Consolas&quot;&gt;f&lt;/font&gt;" style="rounded=1;whiteSpace=wrap;html=1;" vertex="1" parent="1">
          <mxGeometry x="355" y="570" width="120" height="60" as="geometry" />
        </mxCell>
        <mxCell id="_gmDKqszK5r5kLd_yYHz-19" value="&lt;font style=&quot;font-size: 34px;&quot; face=&quot;Consolas&quot;&gt;f&lt;/font&gt;" style="rounded=1;whiteSpace=wrap;html=1;" vertex="1" parent="1">
          <mxGeometry x="355" y="640" width="120" height="60" as="geometry" />
        </mxCell>
        <mxCell id="_gmDKqszK5r5kLd_yYHz-21" value="&lt;font style=&quot;font-size: 34px;&quot; face=&quot;Consolas&quot;&gt;f&lt;/font&gt;" style="rounded=1;whiteSpace=wrap;html=1;" vertex="1" parent="1">
          <mxGeometry x="354" y="780" width="120" height="60" as="geometry" />
        </mxCell>
        <mxCell id="_gmDKqszK5r5kLd_yYHz-22" value="" style="shape=image;html=1;verticalAlign=top;verticalLabelPosition=bottom;labelBackgroundColor=#ffffff;imageAspect=0;aspect=fixed;image=https://cdn1.iconfinder.com/data/icons/ionicons-sharp-vol-1/512/ellipsis-horizontal-sharp-128.png;rotation=90;" vertex="1" parent="1">
          <mxGeometry x="382.75" y="707.96" width="64.5" height="64.5" as="geometry" />
        </mxCell>
        <mxCell id="_gmDKqszK5r5kLd_yYHz-23" value="" style="endArrow=classic;html=1;rounded=0;exitX=0;exitY=0.5;exitDx=0;exitDy=0;entryX=0;entryY=0.5;entryDx=0;entryDy=0;" edge="1" parent="1" source="2VLnSF0OwdZgOoo4mHuo-8" target="_gmDKqszK5r5kLd_yYHz-16">
          <mxGeometry width="50" height="50" relative="1" as="geometry">
            <mxPoint x="280" y="650" as="sourcePoint" />
            <mxPoint x="330" y="600" as="targetPoint" />
          </mxGeometry>
        </mxCell>
        <mxCell id="_gmDKqszK5r5kLd_yYHz-24" value="" style="endArrow=classic;html=1;rounded=0;" edge="1" parent="1" target="2VLnSF0OwdZgOoo4mHuo-8">
          <mxGeometry width="50" height="50" relative="1" as="geometry">
            <mxPoint x="280" y="640" as="sourcePoint" />
            <mxPoint x="365" y="470" as="targetPoint" />
          </mxGeometry>
        </mxCell>
        <mxCell id="_gmDKqszK5r5kLd_yYHz-26" value="" style="endArrow=classic;html=1;rounded=0;exitX=0;exitY=0.5;exitDx=0;exitDy=0;entryX=0;entryY=0.5;entryDx=0;entryDy=0;" edge="1" parent="1" source="2VLnSF0OwdZgOoo4mHuo-8" target="_gmDKqszK5r5kLd_yYHz-17">
          <mxGeometry width="50" height="50" relative="1" as="geometry">
            <mxPoint x="240" y="650" as="sourcePoint" />
            <mxPoint x="290" y="600" as="targetPoint" />
          </mxGeometry>
        </mxCell>
        <mxCell id="_gmDKqszK5r5kLd_yYHz-27" value="" style="endArrow=classic;html=1;rounded=0;exitX=0;exitY=0.5;exitDx=0;exitDy=0;entryX=0;entryY=0.5;entryDx=0;entryDy=0;" edge="1" parent="1" source="2VLnSF0OwdZgOoo4mHuo-8" target="_gmDKqszK5r5kLd_yYHz-18">
          <mxGeometry width="50" height="50" relative="1" as="geometry">
            <mxPoint x="240" y="650" as="sourcePoint" />
            <mxPoint x="290" y="600" as="targetPoint" />
          </mxGeometry>
        </mxCell>
        <mxCell id="_gmDKqszK5r5kLd_yYHz-28" value="" style="endArrow=classic;html=1;rounded=0;exitX=0;exitY=0.5;exitDx=0;exitDy=0;entryX=0;entryY=0.5;entryDx=0;entryDy=0;" edge="1" parent="1" source="2VLnSF0OwdZgOoo4mHuo-8" target="_gmDKqszK5r5kLd_yYHz-19">
          <mxGeometry width="50" height="50" relative="1" as="geometry">
            <mxPoint x="300" y="665" as="sourcePoint" />
            <mxPoint x="375" y="480" as="targetPoint" />
          </mxGeometry>
        </mxCell>
        <mxCell id="_gmDKqszK5r5kLd_yYHz-29" value="" style="endArrow=classic;html=1;rounded=0;exitX=0;exitY=0.5;exitDx=0;exitDy=0;entryX=0;entryY=0.5;entryDx=0;entryDy=0;" edge="1" parent="1" source="2VLnSF0OwdZgOoo4mHuo-8" target="_gmDKqszK5r5kLd_yYHz-21">
          <mxGeometry width="50" height="50" relative="1" as="geometry">
            <mxPoint x="310" y="675" as="sourcePoint" />
            <mxPoint x="385" y="490" as="targetPoint" />
          </mxGeometry>
        </mxCell>
        <mxCell id="_gmDKqszK5r5kLd_yYHz-30" value="&lt;font style=&quot;font-size: 12px;&quot; face=&quot;Consolas&quot;&gt;organise&lt;br&gt;output&lt;br&gt;&lt;/font&gt;" style="ellipse;whiteSpace=wrap;html=1;" vertex="1" parent="1">
          <mxGeometry x="500" y="617.5" width="80" height="55" as="geometry" />
        </mxCell>
        <mxCell id="_gmDKqszK5r5kLd_yYHz-32" value="" style="endArrow=classic;html=1;rounded=0;exitX=1;exitY=0.5;exitDx=0;exitDy=0;entryX=0;entryY=1;entryDx=0;entryDy=0;" edge="1" parent="1" source="_gmDKqszK5r5kLd_yYHz-16" target="_gmDKqszK5r5kLd_yYHz-30">
          <mxGeometry width="50" height="50" relative="1" as="geometry">
            <mxPoint x="240" y="640" as="sourcePoint" />
            <mxPoint x="290" y="590" as="targetPoint" />
          </mxGeometry>
        </mxCell>
        <mxCell id="_gmDKqszK5r5kLd_yYHz-33" value="" style="endArrow=classic;html=1;rounded=0;exitX=1;exitY=0.5;exitDx=0;exitDy=0;entryX=0;entryY=0;entryDx=0;entryDy=0;" edge="1" parent="1" source="_gmDKqszK5r5kLd_yYHz-17" target="_gmDKqszK5r5kLd_yYHz-30">
          <mxGeometry width="50" height="50" relative="1" as="geometry">
            <mxPoint x="510" y="550" as="sourcePoint" />
            <mxPoint x="560" y="500" as="targetPoint" />
          </mxGeometry>
        </mxCell>
        <mxCell id="_gmDKqszK5r5kLd_yYHz-34" value="" style="endArrow=classic;html=1;rounded=0;exitX=1;exitY=0.5;exitDx=0;exitDy=0;entryX=0;entryY=0.5;entryDx=0;entryDy=0;" edge="1" parent="1" source="_gmDKqszK5r5kLd_yYHz-18" target="_gmDKqszK5r5kLd_yYHz-30">
          <mxGeometry width="50" height="50" relative="1" as="geometry">
            <mxPoint x="480" y="650" as="sourcePoint" />
            <mxPoint x="530" y="600" as="targetPoint" />
          </mxGeometry>
        </mxCell>
        <mxCell id="_gmDKqszK5r5kLd_yYHz-35" value="" style="endArrow=classic;html=1;rounded=0;exitX=1;exitY=0.5;exitDx=0;exitDy=0;entryX=0;entryY=0;entryDx=0;entryDy=0;" edge="1" parent="1" source="_gmDKqszK5r5kLd_yYHz-19" target="_gmDKqszK5r5kLd_yYHz-30">
          <mxGeometry width="50" height="50" relative="1" as="geometry">
            <mxPoint x="600" y="610" as="sourcePoint" />
            <mxPoint x="650" y="560" as="targetPoint" />
          </mxGeometry>
        </mxCell>
        <mxCell id="_gmDKqszK5r5kLd_yYHz-37" value="" style="endArrow=classic;html=1;rounded=0;exitX=1;exitY=0.5;exitDx=0;exitDy=0;entryX=0;entryY=1;entryDx=0;entryDy=0;" edge="1" parent="1" source="_gmDKqszK5r5kLd_yYHz-21" target="_gmDKqszK5r5kLd_yYHz-30">
          <mxGeometry width="50" height="50" relative="1" as="geometry">
            <mxPoint x="510" y="850" as="sourcePoint" />
            <mxPoint x="560" y="800" as="targetPoint" />
          </mxGeometry>
        </mxCell>
        <mxCell id="_gmDKqszK5r5kLd_yYHz-38" value="" style="endArrow=classic;html=1;rounded=0;exitX=1;exitY=0.5;exitDx=0;exitDy=0;strokeWidth=2;entryX=0;entryY=0.5;entryDx=0;entryDy=0;" edge="1" parent="1" source="_gmDKqszK5r5kLd_yYHz-30" target="_gmDKqszK5r5kLd_yYHz-39">
          <mxGeometry width="50" height="50" relative="1" as="geometry">
            <mxPoint x="620" y="670" as="sourcePoint" />
            <mxPoint x="630" y="645" as="targetPoint" />
          </mxGeometry>
        </mxCell>
        <mxCell id="_gmDKqszK5r5kLd_yYHz-39" value="&lt;span style=&quot;font-size: 15px;&quot;&gt;[o&lt;sub style=&quot;font-size: 15px;&quot;&gt;0&lt;/sub&gt;, o&lt;sub style=&quot;font-size: 15px;&quot;&gt;1&lt;/sub&gt;, o&lt;sub style=&quot;font-size: 15px;&quot;&gt;2&lt;/sub&gt;, o&lt;sub style=&quot;font-size: 15px;&quot;&gt;3&lt;/sub&gt;, ..., o&lt;sub style=&quot;font-size: 15px;&quot;&gt;n&lt;/sub&gt;]&lt;/span&gt;" style="ellipse;whiteSpace=wrap;html=1;fontFamily=Consolas;fontSize=15;" vertex="1" parent="1">
          <mxGeometry x="601" y="603.5" width="226" height="83" as="geometry" />
        </mxCell>
      </root>
    </mxGraphModel>
  </diagram>
</mxfile>
